<?xml version="1.0" standalone="no"?>
<!DOCTYPE svg PUBLIC "-//W3C//DTD SVG 20010904//EN"
 "http://www.w3.org/TR/2001/REC-SVG-20010904/DTD/svg10.dtd">
<svg version="1.0" xmlns="http://www.w3.org/2000/svg"
 width="500.000000pt" height="500.000000pt" viewBox="0 0 500.000000 500.000000"
 preserveAspectRatio="xMidYMid meet">

<g transform="translate(0.000000,500.000000) scale(0.100000,-0.100000)"
fill="#000000" stroke="none">
<path d="M1840 3383 c-223 -34 -417 -208 -465 -417 -54 -234 23 -443 224 -606
35 -29 44 -43 48 -77 l6 -43 123 0 124 0 0 163 0 163 -43 11 c-168 45 -236
259 -125 393 26 32 84 68 126 79 l42 12 0 164 c0 181 5 168 -60 158z"/>
<path d="M2695 3348 c-56 -31 -70 -89 -33 -141 l22 -31 -25 -70 -25 -71 -130
-5 c-76 -3 -129 -9 -129 -15 0 -11 224 -20 261 -10 17 4 28 24 50 85 24 70 30
80 52 80 35 0 82 51 82 90 0 42 -15 67 -50 85 -34 18 -48 18 -75 3z"/>
<path d="M1940 3155 l0 -95 45 -11 c53 -13 128 -75 154 -128 62 -121 10 -270
-113 -327 -28 -13 -59 -24 -68 -24 -16 0 -18 -11 -18 -96 0 -93 1 -95 23 -92
18 2 23 10 25 41 3 34 8 40 40 53 20 8 47 20 58 26 18 8 29 5 60 -16 l38 -26
43 42 c24 23 43 45 43 49 0 4 -11 21 -25 38 l-26 30 25 58 c19 45 29 59 48 61
69 8 68 7 68 77 l0 65 -32 0 c-45 0 -56 9 -84 70 l-25 53 27 39 27 39 -43 44
-43 44 -35 -27 -34 -26 -52 18 c-64 23 -76 33 -76 61 0 36 -11 55 -31 55 -17
0 -19 -8 -19 -95z"/>
<path d="M1835 2993 c-100 -52 -141 -161 -96 -258 36 -78 95 -115 182 -115 64
0 107 18 146 63 113 129 23 328 -149 327 -29 -1 -66 -8 -83 -17z"/>
<path d="M2811 2889 c-18 -11 -35 -29 -38 -39 -5 -18 -17 -20 -187 -22 -241
-4 -244 -22 -4 -26 l177 -2 17 -30 c32 -54 101 -63 144 -20 45 45 33 117 -25
144 -42 20 -43 20 -84 -5z"/>
<path d="M2381 2621 c-34 -22 4 -31 127 -31 l127 0 26 -74 26 -73 -24 -23
c-35 -33 -31 -84 8 -121 41 -38 81 -38 120 0 55 55 28 139 -51 156 -29 6 -30
8 -67 115 -8 25 -20 48 -27 52 -16 11 -248 10 -265 -1z"/>
<path d="M2554 2187 c-2 -7 -3 -82 -1 -167 l3 -155 2 163 2 162 125 0 125 0 3
-162 3 -163 2 168 2 167 -130 0 c-98 0 -132 -3 -136 -13z"/>
<path d="M2983 2193 c26 -2 67 -2 90 0 23 2 2 3 -48 3 -49 0 -68 -1 -42 -3z"/>
<path d="M3142 2033 l2 -168 3 163 3 162 25 0 25 0 3 -162 3 -163 2 168 2 167
-35 0 -35 0 2 -167z"/>
<path d="M3234 2187 c-2 -7 -3 -82 -1 -167 l3 -155 2 162 2 162 93 4 92 3 -93
2 c-68 1 -94 -1 -98 -11z"/>
<path d="M3524 2187 c-2 -7 -3 -82 -1 -167 l3 -155 2 163 2 162 30 0 30 0 3
-162 3 -163 2 168 2 167 -35 0 c-20 0 -38 -6 -41 -13z"/>
<path d="M1599 2172 c-15 -13 -22 -30 -22 -52 0 -22 7 -39 22 -52 21 -17 46
-18 317 -18 336 0 344 2 344 69 -1 73 9 71 -332 71 -282 0 -308 -1 -329 -18z"/>
<path d="M2895 2180 c-3 -6 1 -7 9 -4 18 7 21 14 7 14 -6 0 -13 -4 -16 -10z"/>
<path d="M3450 2176 c0 -2 8 -10 18 -17 15 -13 16 -12 3 4 -13 16 -21 21 -21
13z"/>
<path d="M3489 2102 c5 -34 6 -35 9 -8 2 16 0 32 -5 37 -5 5 -7 -7 -4 -29z"/>
<path d="M2620 2006 l0 -125 -27 -4 c-26 -4 -26 -4 5 -6 l32 -1 0 125 0 125
60 0 c58 0 60 -1 60 -26 0 -23 -3 -25 -32 -22 -18 2 -34 -1 -35 -7 -2 -5 2
-10 7 -9 6 1 24 2 40 3 27 1 30 4 30 36 l0 35 -70 0 -70 0 0 -124z"/>
<path d="M2848 2112 c-3 -9 -1 -26 3 -37 6 -15 8 -11 8 18 1 40 -4 48 -11 19z"/>
<path d="M2922 2118 c-7 -7 -12 -16 -12 -22 0 -5 6 -2 13 7 9 13 32 17 102 20
l90 3 -90 2 c-60 1 -95 -2 -103 -10z"/>
<path d="M3302 2098 c3 -32 5 -33 51 -36 51 -3 77 9 76 37 0 11 -3 9 -9 -6 -8
-20 -17 -23 -60 -23 -46 0 -50 2 -50 24 0 22 5 25 48 29 l47 3 -53 2 -53 2 3
-32z"/>
<path d="M2929 2067 c4 -5 32 -7 62 -5 l54 3 -62 5 c-34 3 -58 1 -54 -3z"/>
<path d="M3071 2041 c15 -12 25 -34 30 -67 l6 -49 2 41 c1 41 -27 94 -51 94
-6 0 0 -8 13 -19z"/>
<path d="M2870 2030 c6 -11 15 -20 20 -20 6 0 2 9 -7 20 -10 11 -19 20 -21 20
-1 0 2 -9 8 -20z"/>
<path d="M3459 2023 c-13 -16 -12 -17 4 -4 9 7 17 15 17 17 0 8 -8 3 -21 -13z"/>
<path d="M1650 2003 c0 -4 9 -25 20 -48 33 -69 53 -75 248 -75 94 0 182 4 196
10 28 10 53 43 66 89 l9 31 -270 0 c-148 0 -269 -3 -269 -7z"/>
<path d="M2670 1999 c0 -5 18 -9 40 -9 l39 0 4 -62 4 -63 -1 70 -1 70 -42 1
c-24 1 -43 -2 -43 -7z"/>
<path d="M3310 1983 c13 -18 25 -33 27 -33 8 0 -17 38 -33 51 -11 9 -9 2 6
-18z"/>
<path d="M3390 2000 c0 -12 8 -12 35 0 18 8 17 9 -7 9 -16 1 -28 -3 -28 -9z"/>
<path d="M2993 1993 c9 -2 23 -2 30 0 6 3 -1 5 -18 5 -16 0 -22 -2 -12 -5z"/>
<path d="M3038 1962 c-6 -21 -11 -22 -97 -22 l-91 0 0 -35 c0 -19 4 -35 8 -35
5 0 7 14 4 30 l-4 30 85 0 c86 0 115 12 105 42 -3 7 -7 2 -10 -10z"/>
<path d="M3340 1931 c0 -6 4 -13 10 -16 6 -3 7 1 4 9 -7 18 -14 21 -14 7z"/>
<path d="M3440 1912 c6 -13 14 -21 18 -18 3 4 -2 14 -12 24 -18 16 -18 16 -6
-6z"/>
<path d="M2903 1873 c15 -2 39 -2 55 0 15 2 2 4 -28 4 -30 0 -43 -2 -27 -4z"/>
<path d="M3018 1873 c6 -2 18 -2 25 0 6 3 1 5 -13 5 -14 0 -19 -2 -12 -5z"/>
<path d="M3418 1873 c12 -2 30 -2 40 0 9 3 -1 5 -23 4 -22 0 -30 -2 -17 -4z"/>
<path d="M2722 1735 c-1 -87 7 -107 52 -125 35 -13 133 -13 141 0 4 6 -16 10
-54 10 -70 0 -105 11 -116 37 -5 10 -12 50 -15 88 l-7 70 -1 -80z"/>
<path d="M3053 1712 c-51 -52 -90 -98 -88 -101 3 -3 40 30 83 72 43 42 81 77
85 77 4 0 7 -36 7 -81 0 -51 4 -78 10 -74 11 7 14 206 3 204 -5 -1 -50 -44
-100 -97z"/>
<path d="M3195 1800 c-3 -5 31 -10 87 -12 92 -3 93 -3 93 -28 0 -25 -1 -25
-93 -28 l-93 -3 3 -62 3 -62 82 -3 c117 -4 123 1 121 96 -2 105 -9 112 -114
112 -46 0 -85 -4 -89 -10z m183 -132 l-3 -43 -80 0 -80 0 -3 43 -3 42 86 0 86
0 -3 -42z"/>
<path d="M3457 1792 c-10 -10 -17 -30 -17 -45 0 -40 33 -57 112 -57 l68 0 0
-29 c0 -36 -12 -41 -106 -41 -43 0 -74 -4 -74 -10 0 -13 146 -13 170 0 34 18
44 48 25 76 -14 22 -22 24 -84 24 -75 0 -95 12 -89 52 3 22 8 23 86 26 105 4
108 22 4 22 -64 0 -82 -4 -95 -18z"/>
<path d="M2348 1723 c7 -3 16 -2 19 1 4 3 -2 6 -13 5 -11 0 -14 -3 -6 -6z"/>
</g>
</svg>
